%TF.GenerationSoftware,KiCad,Pcbnew,8.0.8*%
%TF.CreationDate,2025-02-21T00:42:49-08:00*%
%TF.ProjectId,jazmyn_hwsw,6a617a6d-796e-45f6-9877-73772e6b6963,rev?*%
%TF.SameCoordinates,Original*%
%TF.FileFunction,Legend,Top*%
%TF.FilePolarity,Positive*%
%FSLAX46Y46*%
G04 Gerber Fmt 4.6, Leading zero omitted, Abs format (unit mm)*
G04 Created by KiCad (PCBNEW 8.0.8) date 2025-02-21 00:42:49*
%MOMM*%
%LPD*%
G01*
G04 APERTURE LIST*
%ADD10C,0.100000*%
%ADD11C,0.150000*%
%ADD12C,0.120000*%
G04 APERTURE END LIST*
D10*
X102089598Y-95372419D02*
X102089598Y-96086704D01*
X102089598Y-96086704D02*
X102041979Y-96229561D01*
X102041979Y-96229561D02*
X101946741Y-96324800D01*
X101946741Y-96324800D02*
X101803884Y-96372419D01*
X101803884Y-96372419D02*
X101708646Y-96372419D01*
X102994360Y-96372419D02*
X102994360Y-95848609D01*
X102994360Y-95848609D02*
X102946741Y-95753371D01*
X102946741Y-95753371D02*
X102851503Y-95705752D01*
X102851503Y-95705752D02*
X102661027Y-95705752D01*
X102661027Y-95705752D02*
X102565789Y-95753371D01*
X102994360Y-96324800D02*
X102899122Y-96372419D01*
X102899122Y-96372419D02*
X102661027Y-96372419D01*
X102661027Y-96372419D02*
X102565789Y-96324800D01*
X102565789Y-96324800D02*
X102518170Y-96229561D01*
X102518170Y-96229561D02*
X102518170Y-96134323D01*
X102518170Y-96134323D02*
X102565789Y-96039085D01*
X102565789Y-96039085D02*
X102661027Y-95991466D01*
X102661027Y-95991466D02*
X102899122Y-95991466D01*
X102899122Y-95991466D02*
X102994360Y-95943847D01*
X103375313Y-95705752D02*
X103899122Y-95705752D01*
X103899122Y-95705752D02*
X103375313Y-96372419D01*
X103375313Y-96372419D02*
X103899122Y-96372419D01*
X104280075Y-96372419D02*
X104280075Y-95705752D01*
X104280075Y-95800990D02*
X104327694Y-95753371D01*
X104327694Y-95753371D02*
X104422932Y-95705752D01*
X104422932Y-95705752D02*
X104565789Y-95705752D01*
X104565789Y-95705752D02*
X104661027Y-95753371D01*
X104661027Y-95753371D02*
X104708646Y-95848609D01*
X104708646Y-95848609D02*
X104708646Y-96372419D01*
X104708646Y-95848609D02*
X104756265Y-95753371D01*
X104756265Y-95753371D02*
X104851503Y-95705752D01*
X104851503Y-95705752D02*
X104994360Y-95705752D01*
X104994360Y-95705752D02*
X105089599Y-95753371D01*
X105089599Y-95753371D02*
X105137218Y-95848609D01*
X105137218Y-95848609D02*
X105137218Y-96372419D01*
X105518170Y-95705752D02*
X105756265Y-96372419D01*
X105994360Y-95705752D02*
X105756265Y-96372419D01*
X105756265Y-96372419D02*
X105661027Y-96610514D01*
X105661027Y-96610514D02*
X105613408Y-96658133D01*
X105613408Y-96658133D02*
X105518170Y-96705752D01*
X106375313Y-95705752D02*
X106375313Y-96372419D01*
X106375313Y-95800990D02*
X106422932Y-95753371D01*
X106422932Y-95753371D02*
X106518170Y-95705752D01*
X106518170Y-95705752D02*
X106661027Y-95705752D01*
X106661027Y-95705752D02*
X106756265Y-95753371D01*
X106756265Y-95753371D02*
X106803884Y-95848609D01*
X106803884Y-95848609D02*
X106803884Y-96372419D01*
X107041980Y-96467657D02*
X107803884Y-96467657D01*
X107946742Y-95372419D02*
X108613408Y-95372419D01*
X108613408Y-95372419D02*
X107946742Y-96372419D01*
X107946742Y-96372419D02*
X108613408Y-96372419D01*
X108994361Y-96372419D02*
X108994361Y-95372419D01*
X109422932Y-96372419D02*
X109422932Y-95848609D01*
X109422932Y-95848609D02*
X109375313Y-95753371D01*
X109375313Y-95753371D02*
X109280075Y-95705752D01*
X109280075Y-95705752D02*
X109137218Y-95705752D01*
X109137218Y-95705752D02*
X109041980Y-95753371D01*
X109041980Y-95753371D02*
X108994361Y-95800990D01*
X110327694Y-96372419D02*
X110327694Y-95848609D01*
X110327694Y-95848609D02*
X110280075Y-95753371D01*
X110280075Y-95753371D02*
X110184837Y-95705752D01*
X110184837Y-95705752D02*
X109994361Y-95705752D01*
X109994361Y-95705752D02*
X109899123Y-95753371D01*
X110327694Y-96324800D02*
X110232456Y-96372419D01*
X110232456Y-96372419D02*
X109994361Y-96372419D01*
X109994361Y-96372419D02*
X109899123Y-96324800D01*
X109899123Y-96324800D02*
X109851504Y-96229561D01*
X109851504Y-96229561D02*
X109851504Y-96134323D01*
X109851504Y-96134323D02*
X109899123Y-96039085D01*
X109899123Y-96039085D02*
X109994361Y-95991466D01*
X109994361Y-95991466D02*
X110232456Y-95991466D01*
X110232456Y-95991466D02*
X110327694Y-95943847D01*
X110803885Y-95705752D02*
X110803885Y-96372419D01*
X110803885Y-95800990D02*
X110851504Y-95753371D01*
X110851504Y-95753371D02*
X110946742Y-95705752D01*
X110946742Y-95705752D02*
X111089599Y-95705752D01*
X111089599Y-95705752D02*
X111184837Y-95753371D01*
X111184837Y-95753371D02*
X111232456Y-95848609D01*
X111232456Y-95848609D02*
X111232456Y-96372419D01*
X112137218Y-95705752D02*
X112137218Y-96515276D01*
X112137218Y-96515276D02*
X112089599Y-96610514D01*
X112089599Y-96610514D02*
X112041980Y-96658133D01*
X112041980Y-96658133D02*
X111946742Y-96705752D01*
X111946742Y-96705752D02*
X111803885Y-96705752D01*
X111803885Y-96705752D02*
X111708647Y-96658133D01*
X112137218Y-96324800D02*
X112041980Y-96372419D01*
X112041980Y-96372419D02*
X111851504Y-96372419D01*
X111851504Y-96372419D02*
X111756266Y-96324800D01*
X111756266Y-96324800D02*
X111708647Y-96277180D01*
X111708647Y-96277180D02*
X111661028Y-96181942D01*
X111661028Y-96181942D02*
X111661028Y-95896228D01*
X111661028Y-95896228D02*
X111708647Y-95800990D01*
X111708647Y-95800990D02*
X111756266Y-95753371D01*
X111756266Y-95753371D02*
X111851504Y-95705752D01*
X111851504Y-95705752D02*
X112041980Y-95705752D01*
X112041980Y-95705752D02*
X112137218Y-95753371D01*
X112375314Y-96467657D02*
X113137218Y-96467657D01*
X113280076Y-95705752D02*
X113518171Y-96372419D01*
X113518171Y-96372419D02*
X113756266Y-95705752D01*
X114327695Y-95372419D02*
X114422933Y-95372419D01*
X114422933Y-95372419D02*
X114518171Y-95420038D01*
X114518171Y-95420038D02*
X114565790Y-95467657D01*
X114565790Y-95467657D02*
X114613409Y-95562895D01*
X114613409Y-95562895D02*
X114661028Y-95753371D01*
X114661028Y-95753371D02*
X114661028Y-95991466D01*
X114661028Y-95991466D02*
X114613409Y-96181942D01*
X114613409Y-96181942D02*
X114565790Y-96277180D01*
X114565790Y-96277180D02*
X114518171Y-96324800D01*
X114518171Y-96324800D02*
X114422933Y-96372419D01*
X114422933Y-96372419D02*
X114327695Y-96372419D01*
X114327695Y-96372419D02*
X114232457Y-96324800D01*
X114232457Y-96324800D02*
X114184838Y-96277180D01*
X114184838Y-96277180D02*
X114137219Y-96181942D01*
X114137219Y-96181942D02*
X114089600Y-95991466D01*
X114089600Y-95991466D02*
X114089600Y-95753371D01*
X114089600Y-95753371D02*
X114137219Y-95562895D01*
X114137219Y-95562895D02*
X114184838Y-95467657D01*
X114184838Y-95467657D02*
X114232457Y-95420038D01*
X114232457Y-95420038D02*
X114327695Y-95372419D01*
X115041981Y-95467657D02*
X115089600Y-95420038D01*
X115089600Y-95420038D02*
X115184838Y-95372419D01*
X115184838Y-95372419D02*
X115422933Y-95372419D01*
X115422933Y-95372419D02*
X115518171Y-95420038D01*
X115518171Y-95420038D02*
X115565790Y-95467657D01*
X115565790Y-95467657D02*
X115613409Y-95562895D01*
X115613409Y-95562895D02*
X115613409Y-95658133D01*
X115613409Y-95658133D02*
X115565790Y-95800990D01*
X115565790Y-95800990D02*
X114994362Y-96372419D01*
X114994362Y-96372419D02*
X115613409Y-96372419D01*
D11*
X119304819Y-73738094D02*
X118304819Y-73738094D01*
X118304819Y-73738094D02*
X118304819Y-73499999D01*
X118304819Y-73499999D02*
X118352438Y-73357142D01*
X118352438Y-73357142D02*
X118447676Y-73261904D01*
X118447676Y-73261904D02*
X118542914Y-73214285D01*
X118542914Y-73214285D02*
X118733390Y-73166666D01*
X118733390Y-73166666D02*
X118876247Y-73166666D01*
X118876247Y-73166666D02*
X119066723Y-73214285D01*
X119066723Y-73214285D02*
X119161961Y-73261904D01*
X119161961Y-73261904D02*
X119257200Y-73357142D01*
X119257200Y-73357142D02*
X119304819Y-73499999D01*
X119304819Y-73499999D02*
X119304819Y-73738094D01*
X119304819Y-72214285D02*
X119304819Y-72785713D01*
X119304819Y-72499999D02*
X118304819Y-72499999D01*
X118304819Y-72499999D02*
X118447676Y-72595237D01*
X118447676Y-72595237D02*
X118542914Y-72690475D01*
X118542914Y-72690475D02*
X118590533Y-72785713D01*
X97833333Y-79179580D02*
X97785714Y-79227200D01*
X97785714Y-79227200D02*
X97642857Y-79274819D01*
X97642857Y-79274819D02*
X97547619Y-79274819D01*
X97547619Y-79274819D02*
X97404762Y-79227200D01*
X97404762Y-79227200D02*
X97309524Y-79131961D01*
X97309524Y-79131961D02*
X97261905Y-79036723D01*
X97261905Y-79036723D02*
X97214286Y-78846247D01*
X97214286Y-78846247D02*
X97214286Y-78703390D01*
X97214286Y-78703390D02*
X97261905Y-78512914D01*
X97261905Y-78512914D02*
X97309524Y-78417676D01*
X97309524Y-78417676D02*
X97404762Y-78322438D01*
X97404762Y-78322438D02*
X97547619Y-78274819D01*
X97547619Y-78274819D02*
X97642857Y-78274819D01*
X97642857Y-78274819D02*
X97785714Y-78322438D01*
X97785714Y-78322438D02*
X97833333Y-78370057D01*
X98785714Y-79274819D02*
X98214286Y-79274819D01*
X98500000Y-79274819D02*
X98500000Y-78274819D01*
X98500000Y-78274819D02*
X98404762Y-78417676D01*
X98404762Y-78417676D02*
X98309524Y-78512914D01*
X98309524Y-78512914D02*
X98214286Y-78560533D01*
X122604819Y-65166666D02*
X122128628Y-65499999D01*
X122604819Y-65738094D02*
X121604819Y-65738094D01*
X121604819Y-65738094D02*
X121604819Y-65357142D01*
X121604819Y-65357142D02*
X121652438Y-65261904D01*
X121652438Y-65261904D02*
X121700057Y-65214285D01*
X121700057Y-65214285D02*
X121795295Y-65166666D01*
X121795295Y-65166666D02*
X121938152Y-65166666D01*
X121938152Y-65166666D02*
X122033390Y-65214285D01*
X122033390Y-65214285D02*
X122081009Y-65261904D01*
X122081009Y-65261904D02*
X122128628Y-65357142D01*
X122128628Y-65357142D02*
X122128628Y-65738094D01*
X122604819Y-64214285D02*
X122604819Y-64785713D01*
X122604819Y-64499999D02*
X121604819Y-64499999D01*
X121604819Y-64499999D02*
X121747676Y-64595237D01*
X121747676Y-64595237D02*
X121842914Y-64690475D01*
X121842914Y-64690475D02*
X121890533Y-64785713D01*
X105257200Y-67833332D02*
X105304819Y-67690475D01*
X105304819Y-67690475D02*
X105304819Y-67452380D01*
X105304819Y-67452380D02*
X105257200Y-67357142D01*
X105257200Y-67357142D02*
X105209580Y-67309523D01*
X105209580Y-67309523D02*
X105114342Y-67261904D01*
X105114342Y-67261904D02*
X105019104Y-67261904D01*
X105019104Y-67261904D02*
X104923866Y-67309523D01*
X104923866Y-67309523D02*
X104876247Y-67357142D01*
X104876247Y-67357142D02*
X104828628Y-67452380D01*
X104828628Y-67452380D02*
X104781009Y-67642856D01*
X104781009Y-67642856D02*
X104733390Y-67738094D01*
X104733390Y-67738094D02*
X104685771Y-67785713D01*
X104685771Y-67785713D02*
X104590533Y-67833332D01*
X104590533Y-67833332D02*
X104495295Y-67833332D01*
X104495295Y-67833332D02*
X104400057Y-67785713D01*
X104400057Y-67785713D02*
X104352438Y-67738094D01*
X104352438Y-67738094D02*
X104304819Y-67642856D01*
X104304819Y-67642856D02*
X104304819Y-67404761D01*
X104304819Y-67404761D02*
X104352438Y-67261904D01*
X104304819Y-66928570D02*
X105304819Y-66690475D01*
X105304819Y-66690475D02*
X104590533Y-66499999D01*
X104590533Y-66499999D02*
X105304819Y-66309523D01*
X105304819Y-66309523D02*
X104304819Y-66071428D01*
X105304819Y-65166666D02*
X105304819Y-65738094D01*
X105304819Y-65452380D02*
X104304819Y-65452380D01*
X104304819Y-65452380D02*
X104447676Y-65547618D01*
X104447676Y-65547618D02*
X104542914Y-65642856D01*
X104542914Y-65642856D02*
X104590533Y-65738094D01*
X112896666Y-87374819D02*
X112896666Y-88089104D01*
X112896666Y-88089104D02*
X112849047Y-88231961D01*
X112849047Y-88231961D02*
X112753809Y-88327200D01*
X112753809Y-88327200D02*
X112610952Y-88374819D01*
X112610952Y-88374819D02*
X112515714Y-88374819D01*
X113896666Y-88374819D02*
X113325238Y-88374819D01*
X113610952Y-88374819D02*
X113610952Y-87374819D01*
X113610952Y-87374819D02*
X113515714Y-87517676D01*
X113515714Y-87517676D02*
X113420476Y-87612914D01*
X113420476Y-87612914D02*
X113325238Y-87660533D01*
X102331009Y-69285714D02*
X102378628Y-69142857D01*
X102378628Y-69142857D02*
X102426247Y-69095238D01*
X102426247Y-69095238D02*
X102521485Y-69047619D01*
X102521485Y-69047619D02*
X102664342Y-69047619D01*
X102664342Y-69047619D02*
X102759580Y-69095238D01*
X102759580Y-69095238D02*
X102807200Y-69142857D01*
X102807200Y-69142857D02*
X102854819Y-69238095D01*
X102854819Y-69238095D02*
X102854819Y-69619047D01*
X102854819Y-69619047D02*
X101854819Y-69619047D01*
X101854819Y-69619047D02*
X101854819Y-69285714D01*
X101854819Y-69285714D02*
X101902438Y-69190476D01*
X101902438Y-69190476D02*
X101950057Y-69142857D01*
X101950057Y-69142857D02*
X102045295Y-69095238D01*
X102045295Y-69095238D02*
X102140533Y-69095238D01*
X102140533Y-69095238D02*
X102235771Y-69142857D01*
X102235771Y-69142857D02*
X102283390Y-69190476D01*
X102283390Y-69190476D02*
X102331009Y-69285714D01*
X102331009Y-69285714D02*
X102331009Y-69619047D01*
X101854819Y-68761904D02*
X101854819Y-68190476D01*
X102854819Y-68476190D02*
X101854819Y-68476190D01*
X102854819Y-67333333D02*
X102854819Y-67904761D01*
X102854819Y-67619047D02*
X101854819Y-67619047D01*
X101854819Y-67619047D02*
X101997676Y-67714285D01*
X101997676Y-67714285D02*
X102092914Y-67809523D01*
X102092914Y-67809523D02*
X102140533Y-67904761D01*
X122834819Y-85716666D02*
X122358628Y-86049999D01*
X122834819Y-86288094D02*
X121834819Y-86288094D01*
X121834819Y-86288094D02*
X121834819Y-85907142D01*
X121834819Y-85907142D02*
X121882438Y-85811904D01*
X121882438Y-85811904D02*
X121930057Y-85764285D01*
X121930057Y-85764285D02*
X122025295Y-85716666D01*
X122025295Y-85716666D02*
X122168152Y-85716666D01*
X122168152Y-85716666D02*
X122263390Y-85764285D01*
X122263390Y-85764285D02*
X122311009Y-85811904D01*
X122311009Y-85811904D02*
X122358628Y-85907142D01*
X122358628Y-85907142D02*
X122358628Y-86288094D01*
X121930057Y-85335713D02*
X121882438Y-85288094D01*
X121882438Y-85288094D02*
X121834819Y-85192856D01*
X121834819Y-85192856D02*
X121834819Y-84954761D01*
X121834819Y-84954761D02*
X121882438Y-84859523D01*
X121882438Y-84859523D02*
X121930057Y-84811904D01*
X121930057Y-84811904D02*
X122025295Y-84764285D01*
X122025295Y-84764285D02*
X122120533Y-84764285D01*
X122120533Y-84764285D02*
X122263390Y-84811904D01*
X122263390Y-84811904D02*
X122834819Y-85383332D01*
X122834819Y-85383332D02*
X122834819Y-84764285D01*
D12*
%TO.C,D1*%
X119540000Y-72000000D02*
X119540000Y-74860000D01*
X119540000Y-74860000D02*
X121460000Y-74860000D01*
X121460000Y-74860000D02*
X121460000Y-72000000D01*
%TO.C,C1*%
X97738748Y-79765000D02*
X98261252Y-79765000D01*
X97738748Y-81235000D02*
X98261252Y-81235000D01*
%TO.C,R1*%
X119765000Y-64772936D02*
X119765000Y-65227064D01*
X121235000Y-64772936D02*
X121235000Y-65227064D01*
%TO.C,SW1*%
X105940000Y-61390000D02*
X105940000Y-71610000D01*
X105940000Y-71610000D02*
X109960000Y-71610000D01*
X106440000Y-61890000D02*
X107650000Y-61890000D01*
X106440000Y-71110000D02*
X106440000Y-61890000D01*
X107650000Y-61890000D02*
X107650000Y-61390000D01*
X107650000Y-71110000D02*
X106440000Y-71110000D01*
X107650000Y-71610000D02*
X107650000Y-71110000D01*
X107760000Y-71910000D02*
X110260000Y-71910000D01*
X108460000Y-61390000D02*
X108460000Y-62390000D01*
X108460000Y-62390000D02*
X109960000Y-62390000D01*
X108460000Y-70610000D02*
X109960000Y-70610000D01*
X108460000Y-71610000D02*
X108460000Y-70610000D01*
X109960000Y-61390000D02*
X105940000Y-61390000D01*
X109960000Y-71610000D02*
X109960000Y-61390000D01*
X110260000Y-71910000D02*
X110260000Y-69410000D01*
%TO.C,J1*%
X111900000Y-84830000D02*
X111900000Y-81270000D01*
X111900000Y-86350000D02*
X110380000Y-86350000D01*
X111900000Y-86920000D02*
X111900000Y-86350000D01*
X114560000Y-79180000D02*
X111900000Y-79180000D01*
X114560000Y-79750000D02*
X114560000Y-79180000D01*
X114560000Y-82290000D02*
X114560000Y-79180000D01*
X114560000Y-86920000D02*
X111900000Y-86920000D01*
X114560000Y-86920000D02*
X114560000Y-83810000D01*
%TO.C,BT1*%
X96590000Y-65440000D02*
X96590000Y-71560000D01*
X96590000Y-71560000D02*
X101310000Y-71560000D01*
X97200000Y-66050000D02*
X97200000Y-70950000D01*
X97200000Y-68400000D02*
X97700000Y-68400000D01*
X97200000Y-68500000D02*
X97700000Y-68500000D01*
X97200000Y-70950000D02*
X100700000Y-70950000D01*
X97700000Y-68400000D02*
X97700000Y-68600000D01*
X97700000Y-68600000D02*
X97200000Y-68600000D01*
X98700000Y-65440000D02*
X98700000Y-66050000D01*
X98700000Y-71560000D02*
X98700000Y-70950000D01*
X100000000Y-65440000D02*
X100000000Y-66050000D01*
X100000000Y-71560000D02*
X100000000Y-70950000D01*
X100700000Y-66050000D02*
X97200000Y-66050000D01*
X100700000Y-68000000D02*
X100700000Y-66050000D01*
X100700000Y-69000000D02*
X101310000Y-69000000D01*
X100700000Y-70950000D02*
X100700000Y-69000000D01*
X101310000Y-65440000D02*
X96590000Y-65440000D01*
X101310000Y-67200000D02*
X101510000Y-67200000D01*
X101310000Y-68000000D02*
X100700000Y-68000000D01*
X101310000Y-71560000D02*
X101310000Y-65440000D01*
X101410000Y-67200000D02*
X101410000Y-66900000D01*
X101510000Y-66900000D02*
X101310000Y-66900000D01*
X101510000Y-67200000D02*
X101510000Y-66900000D01*
X101610000Y-65140000D02*
X100360000Y-65140000D01*
X101610000Y-66390000D02*
X101610000Y-65140000D01*
%TO.C,R2*%
X119995000Y-85322936D02*
X119995000Y-85777064D01*
X121465000Y-85322936D02*
X121465000Y-85777064D01*
%TD*%
M02*
