%TF.GenerationSoftware,KiCad,Pcbnew,8.0.8*%
%TF.CreationDate,2025-02-21T00:42:49-08:00*%
%TF.ProjectId,jazmyn_hwsw,6a617a6d-796e-45f6-9877-73772e6b6963,rev?*%
%TF.SameCoordinates,Original*%
%TF.FileFunction,Legend,Bot*%
%TF.FilePolarity,Positive*%
%FSLAX46Y46*%
G04 Gerber Fmt 4.6, Leading zero omitted, Abs format (unit mm)*
G04 Created by KiCad (PCBNEW 8.0.8) date 2025-02-21 00:42:49*
%MOMM*%
%LPD*%
G01*
G04 APERTURE LIST*
%ADD10C,0.100000*%
G04 APERTURE END LIST*
D10*
X146371904Y-63927419D02*
X146371904Y-64736942D01*
X146371904Y-64736942D02*
X146324285Y-64832180D01*
X146324285Y-64832180D02*
X146276666Y-64879800D01*
X146276666Y-64879800D02*
X146181428Y-64927419D01*
X146181428Y-64927419D02*
X145990952Y-64927419D01*
X145990952Y-64927419D02*
X145895714Y-64879800D01*
X145895714Y-64879800D02*
X145848095Y-64832180D01*
X145848095Y-64832180D02*
X145800476Y-64736942D01*
X145800476Y-64736942D02*
X145800476Y-63927419D01*
X144800476Y-64927419D02*
X145371904Y-64927419D01*
X145086190Y-64927419D02*
X145086190Y-63927419D01*
X145086190Y-63927419D02*
X145181428Y-64070276D01*
X145181428Y-64070276D02*
X145276666Y-64165514D01*
X145276666Y-64165514D02*
X145371904Y-64213133D01*
X124309523Y-87957419D02*
X124309523Y-86957419D01*
X124309523Y-86957419D02*
X123976190Y-87671704D01*
X123976190Y-87671704D02*
X123642857Y-86957419D01*
X123642857Y-86957419D02*
X123642857Y-87957419D01*
X122642857Y-87957419D02*
X123214285Y-87957419D01*
X122928571Y-87957419D02*
X122928571Y-86957419D01*
X122928571Y-86957419D02*
X123023809Y-87100276D01*
X123023809Y-87100276D02*
X123119047Y-87195514D01*
X123119047Y-87195514D02*
X123214285Y-87243133D01*
%TO.C,U1*%
X143070000Y-68510000D02*
X143070000Y-72320000D01*
X143070000Y-72320000D02*
X150690000Y-72320000D01*
X150690000Y-72320000D02*
X150690000Y-68510000D01*
%TD*%
M02*
