M48
; DRILL file {KiCad 8.0.8} date 2025-02-28T02:08:54-0800
; FORMAT={-:-/ absolute / inch / decimal}
; #@! TF.CreationDate,2025-02-28T02:08:54-08:00
; #@! TF.GenerationSoftware,Kicad,Pcbnew,8.0.8
; #@! TF.FileFunction,Plated,1,2,PTH
FMAT,2
INCH
; #@! TA.AperFunction,Plated,PTH,ComponentDrill
T1C0.0295
; #@! TA.AperFunction,Plated,PTH,ComponentDrill
T2C0.0335
; #@! TA.AperFunction,Plated,PTH,ComponentDrill
T3C0.0400
; #@! TA.AperFunction,Plated,PTH,ComponentDrill
T4C0.0470
%
G90
G05
T1
X4.1358Y-2.9724
X4.1358Y-3.0512
T2
X4.7075Y-4.0823
X4.7075Y-4.3823
X5.6075Y-4.0823
X5.6075Y-4.3823
T3
X5.4827Y-2.7972
X5.4827Y-2.8972
X5.4827Y-2.9972
X5.4827Y-3.0972
X5.4827Y-3.1972
X5.4827Y-3.2972
X5.4827Y-3.3972
X6.0827Y-2.7972
X6.0827Y-2.8972
X6.0827Y-2.9972
X6.0827Y-3.0972
X6.0827Y-3.1972
X6.0827Y-3.2972
X6.0827Y-3.3972
T4
X4.4429Y-2.6239
X4.6516Y-2.6239
M30
