%TF.GenerationSoftware,KiCad,Pcbnew,8.0.8*%
%TF.CreationDate,2025-02-28T02:08:50-08:00*%
%TF.ProjectId,jazmyn_hwsw,6a617a6d-796e-45f6-9877-73772e6b6963,rev?*%
%TF.SameCoordinates,Original*%
%TF.FileFunction,Copper,L1,Top*%
%TF.FilePolarity,Positive*%
%FSLAX46Y46*%
G04 Gerber Fmt 4.6, Leading zero omitted, Abs format (unit mm)*
G04 Created by KiCad (PCBNEW 8.0.8) date 2025-02-28 02:08:50*
%MOMM*%
%LPD*%
G01*
G04 APERTURE LIST*
G04 Aperture macros list*
%AMRoundRect*
0 Rectangle with rounded corners*
0 $1 Rounding radius*
0 $2 $3 $4 $5 $6 $7 $8 $9 X,Y pos of 4 corners*
0 Add a 4 corners polygon primitive as box body*
4,1,4,$2,$3,$4,$5,$6,$7,$8,$9,$2,$3,0*
0 Add four circle primitives for the rounded corners*
1,1,$1+$1,$2,$3*
1,1,$1+$1,$4,$5*
1,1,$1+$1,$6,$7*
1,1,$1+$1,$8,$9*
0 Add four rect primitives between the rounded corners*
20,1,$1+$1,$2,$3,$4,$5,0*
20,1,$1+$1,$4,$5,$6,$7,0*
20,1,$1+$1,$6,$7,$8,$9,0*
20,1,$1+$1,$8,$9,$2,$3,0*%
G04 Aperture macros list end*
%TA.AperFunction,ComponentPad*%
%ADD10C,1.701800*%
%TD*%
%TA.AperFunction,SMDPad,CuDef*%
%ADD11RoundRect,0.250000X0.450000X-0.325000X0.450000X0.325000X-0.450000X0.325000X-0.450000X-0.325000X0*%
%TD*%
%TA.AperFunction,SMDPad,CuDef*%
%ADD12RoundRect,0.250000X-0.337500X-0.475000X0.337500X-0.475000X0.337500X0.475000X-0.337500X0.475000X0*%
%TD*%
%TA.AperFunction,SMDPad,CuDef*%
%ADD13RoundRect,0.250000X-0.450000X0.350000X-0.450000X-0.350000X0.450000X-0.350000X0.450000X0.350000X0*%
%TD*%
%TA.AperFunction,SMDPad,CuDef*%
%ADD14R,2.510000X1.000000*%
%TD*%
%TA.AperFunction,ComponentPad*%
%ADD15RoundRect,0.250000X-0.625000X0.350000X-0.625000X-0.350000X0.625000X-0.350000X0.625000X0.350000X0*%
%TD*%
%TA.AperFunction,ComponentPad*%
%ADD16O,1.750000X1.200000*%
%TD*%
%TA.AperFunction,ComponentPad*%
%ADD17O,3.556000X1.778000*%
%TD*%
%TA.AperFunction,ComponentPad*%
%ADD18C,1.700000*%
%TD*%
%TA.AperFunction,Conductor*%
%ADD19C,0.500000*%
%TD*%
%TA.AperFunction,Conductor*%
%ADD20C,0.254000*%
%TD*%
%TA.AperFunction,Conductor*%
%ADD21C,0.200000*%
%TD*%
G04 APERTURE END LIST*
D10*
%TO.P,U2,6,6*%
%TO.N,Net-(J1-Pin_1)*%
X118150000Y-66648150D03*
%TO.P,U2,1,1*%
%TO.N,Net-(BT1-+)*%
X112850000Y-66648150D03*
%TD*%
D11*
%TO.P,D1,2,A*%
%TO.N,Net-(D1-A)*%
X128500000Y-75475000D03*
%TO.P,D1,1,K*%
%TO.N,GND*%
X128500000Y-77525000D03*
%TD*%
D12*
%TO.P,C1,1*%
%TO.N,Net-(J1-Pin_1)*%
X99925000Y-87000000D03*
%TO.P,C1,2*%
%TO.N,GND*%
X102000000Y-87000000D03*
%TD*%
D13*
%TO.P,R1,2*%
%TO.N,Net-(D1-A)*%
X128500000Y-70000000D03*
%TO.P,R1,1*%
%TO.N,Net-(J1-Pin_1)*%
X128500000Y-68000000D03*
%TD*%
D14*
%TO.P,J1,3,Pin_3*%
%TO.N,GND*%
X101000000Y-93920000D03*
%TO.P,J1,2,Pin_2*%
%TO.N,Net-(J1-Pin_2)*%
X104310000Y-96460000D03*
%TO.P,J1,1,Pin_1*%
%TO.N,Net-(J1-Pin_1)*%
X101000000Y-99000000D03*
%TD*%
D15*
%TO.P,BT1,1,+*%
%TO.N,Net-(BT1-+)*%
X105050000Y-75500000D03*
D16*
%TO.P,BT1,2,-*%
%TO.N,GND*%
X105050000Y-77500000D03*
%TD*%
D13*
%TO.P,R2,1*%
%TO.N,Net-(J1-Pin_2)*%
X128500000Y-82500000D03*
%TO.P,R2,2*%
%TO.N,Net-(U1-GPIO7_A8_D8_SCK)*%
X128500000Y-84500000D03*
%TD*%
D17*
%TO.P,U1,1,GPIO1_A0_D0*%
%TO.N,Net-(U1-GPIO1_A0_D0)*%
X155262000Y-71050000D03*
%TO.P,U1,2,GPIO2_A1_D1*%
%TO.N,Net-(M1--)*%
X155262000Y-73590000D03*
%TO.P,U1,3,GPIO3_A2_D2*%
%TO.N,Net-(U1-GPIO3_A2_D2)*%
X155262000Y-76130000D03*
%TO.P,U1,4,GPIO4_A3_D3*%
%TO.N,Net-(U1-GPIO4_A3_D3)*%
X155262000Y-78670000D03*
%TO.P,U1,5,GPIO4_A3_D3_SDA*%
%TO.N,unconnected-(U1-GPIO4_A3_D3_SDA-Pad5)*%
X155262000Y-81210000D03*
%TO.P,U1,6,GPIO6_A5_D5_SCL*%
%TO.N,unconnected-(U1-GPIO6_A5_D5_SCL-Pad6)*%
X155262000Y-83750000D03*
%TO.P,U1,7,GPIO43_TX_D6*%
%TO.N,unconnected-(U1-GPIO43_TX_D6-Pad7)*%
X155262000Y-86290000D03*
%TO.P,U1,8,5V*%
%TO.N,Net-(J1-Pin_1)*%
X138498000Y-71050000D03*
%TO.P,U1,9,GND*%
%TO.N,GND*%
X138498000Y-73590000D03*
%TO.P,U1,10,3V3*%
%TO.N,unconnected-(U1-3V3-Pad10)*%
X138498000Y-76130000D03*
%TO.P,U1,11,GPIO9_A10_D10_COPI*%
%TO.N,unconnected-(U1-GPIO9_A10_D10_COPI-Pad11)*%
X138498000Y-78670000D03*
%TO.P,U1,12,GPIO8_A9_D9_CIPO*%
%TO.N,unconnected-(U1-GPIO8_A9_D9_CIPO-Pad12)*%
X138498000Y-81210000D03*
%TO.P,U1,13,GPIO7_A8_D8_SCK*%
%TO.N,Net-(U1-GPIO7_A8_D8_SCK)*%
X138498000Y-83750000D03*
%TO.P,U1,14,GPIO44_D7_RX*%
%TO.N,unconnected-(U1-GPIO44_D7_RX-Pad14)*%
X138498000Y-86290000D03*
%TD*%
D18*
%TO.P,M1,1*%
%TO.N,Net-(U1-GPIO1_A0_D0)*%
X119570000Y-103690000D03*
%TO.P,M1,2,-*%
%TO.N,Net-(M1--)*%
X119570000Y-111310000D03*
%TO.P,M1,3*%
%TO.N,Net-(U1-GPIO3_A2_D2)*%
X142430000Y-111310000D03*
%TO.P,M1,4*%
%TO.N,Net-(U1-GPIO4_A3_D3)*%
X142430000Y-103690000D03*
%TD*%
D19*
%TO.N,GND*%
X105050000Y-77500000D02*
X105050000Y-83950000D01*
X105050000Y-83950000D02*
X102000000Y-87000000D01*
D20*
%TO.N,Net-(J1-Pin_2)*%
X128500000Y-82500000D02*
X111000000Y-82500000D01*
X111000000Y-82500000D02*
X104310000Y-89190000D01*
X104310000Y-89190000D02*
X104310000Y-96460000D01*
%TO.N,Net-(U1-GPIO7_A8_D8_SCK)*%
X139260000Y-83750000D02*
X138510000Y-84500000D01*
X138510000Y-84500000D02*
X128500000Y-84500000D01*
D19*
%TO.N,GND*%
X105050000Y-77500000D02*
X128475000Y-77500000D01*
X128475000Y-77500000D02*
X128500000Y-77525000D01*
X139260000Y-73590000D02*
X135910000Y-73590000D01*
X135910000Y-73590000D02*
X131975000Y-77525000D01*
X131975000Y-77525000D02*
X128500000Y-77525000D01*
D20*
%TO.N,Net-(D1-A)*%
X128500000Y-70000000D02*
X128500000Y-75975000D01*
D19*
%TO.N,GND*%
X102000000Y-87000000D02*
X102000000Y-92920000D01*
X102000000Y-92920000D02*
X101000000Y-93920000D01*
D20*
%TO.N,Net-(J1-Pin_1)*%
X97500000Y-91000000D02*
X97500000Y-99000000D01*
X99925000Y-87000000D02*
X99925000Y-88575000D01*
X99925000Y-88575000D02*
X97500000Y-91000000D01*
X97500000Y-99000000D02*
X101000000Y-99000000D01*
%TO.N,Net-(BT1-+)*%
X112850000Y-66648150D02*
X106351850Y-66648150D01*
X106351850Y-66648150D02*
X105050000Y-67950000D01*
X105050000Y-67950000D02*
X105050000Y-75500000D01*
%TO.N,Net-(J1-Pin_1)*%
X118150000Y-66648150D02*
X118150000Y-64150000D01*
X118150000Y-64150000D02*
X118000000Y-64000000D01*
X118000000Y-64000000D02*
X103500000Y-64000000D01*
X103500000Y-64000000D02*
X99925000Y-67575000D01*
X99925000Y-67575000D02*
X99925000Y-87000000D01*
X128500000Y-68000000D02*
X127000000Y-68000000D01*
X125648150Y-66648150D02*
X118150000Y-66648150D01*
X127000000Y-68000000D02*
X125648150Y-66648150D01*
X138050000Y-71050000D02*
X135000000Y-68000000D01*
X139260000Y-71050000D02*
X138050000Y-71050000D01*
X135000000Y-68000000D02*
X128500000Y-68000000D01*
D19*
%TO.N,GND*%
X139260000Y-73590000D02*
X138825000Y-74025000D01*
X100960000Y-93960000D02*
X101000000Y-93920000D01*
X101000000Y-93920000D02*
X100990000Y-93910000D01*
D20*
%TO.N,Net-(U1-GPIO1_A0_D0)*%
X145500000Y-73500000D02*
X145500000Y-86657304D01*
X154450000Y-71000000D02*
X148000000Y-71000000D01*
X145500000Y-86657304D02*
X128467304Y-103690000D01*
X154500000Y-71050000D02*
X154450000Y-71000000D01*
X148000000Y-71000000D02*
X145500000Y-73500000D01*
X128467304Y-103690000D02*
X119570000Y-103690000D01*
%TO.N,Net-(M1--)*%
X147500000Y-89500000D02*
X125690000Y-111310000D01*
X149910000Y-73590000D02*
X147500000Y-76000000D01*
X154500000Y-73590000D02*
X149910000Y-73590000D01*
X147500000Y-76000000D02*
X147500000Y-89500000D01*
X125690000Y-111310000D02*
X119570000Y-111310000D01*
%TO.N,Net-(U1-GPIO3_A2_D2)*%
X154630000Y-76000000D02*
X154500000Y-76130000D01*
X151690000Y-111310000D02*
X159500000Y-103500000D01*
X159500000Y-76000000D02*
X154630000Y-76000000D01*
X159500000Y-103500000D02*
X159500000Y-76000000D01*
X142430000Y-111310000D02*
X151690000Y-111310000D01*
%TO.N,Net-(U1-GPIO4_A3_D3)*%
X150500000Y-90500000D02*
X150500000Y-78500000D01*
X142430000Y-103690000D02*
X142430000Y-98570000D01*
X150500000Y-78500000D02*
X154330000Y-78500000D01*
X154330000Y-78500000D02*
X154500000Y-78670000D01*
D21*
X154670000Y-78500000D02*
X154500000Y-78670000D01*
D20*
X142430000Y-98570000D02*
X150500000Y-90500000D01*
%TD*%
M02*
