%TF.GenerationSoftware,KiCad,Pcbnew,8.0.8*%
%TF.CreationDate,2025-02-28T02:08:50-08:00*%
%TF.ProjectId,jazmyn_hwsw,6a617a6d-796e-45f6-9877-73772e6b6963,rev?*%
%TF.SameCoordinates,Original*%
%TF.FileFunction,Profile,NP*%
%FSLAX46Y46*%
G04 Gerber Fmt 4.6, Leading zero omitted, Abs format (unit mm)*
G04 Created by KiCad (PCBNEW 8.0.8) date 2025-02-28 02:08:50*
%MOMM*%
%LPD*%
G01*
G04 APERTURE LIST*
%TA.AperFunction,Profile*%
%ADD10C,0.050000*%
%TD*%
G04 APERTURE END LIST*
D10*
X133500000Y-127500000D02*
G75*
G02*
X127500000Y-127500000I-3000000J0D01*
G01*
X127500000Y-127500000D02*
G75*
G02*
X133500000Y-127500000I3000000J0D01*
G01*
X92500000Y-80500000D02*
G75*
G02*
X86500000Y-80500000I-3000000J0D01*
G01*
X86500000Y-80500000D02*
G75*
G02*
X92500000Y-80500000I3000000J0D01*
G01*
X174500000Y-79500000D02*
G75*
G02*
X168500000Y-79500000I-3000000J0D01*
G01*
X168500000Y-79500000D02*
G75*
G02*
X174500000Y-79500000I3000000J0D01*
G01*
X136334642Y-135961904D02*
G75*
G02*
X124652650Y-135952573I-5831600J11767643D01*
G01*
X137999999Y-58999998D02*
G75*
G02*
X123000001Y-58999998I-7499999J10999998D01*
G01*
X81979687Y-88280375D02*
G75*
G02*
X123000000Y-59000000I24528626J9010516D01*
G01*
X124649609Y-135944787D02*
G75*
G02*
X81979688Y-88280375I34330082J73664415D01*
G01*
X179020312Y-88280375D02*
G75*
G02*
X136334642Y-135961904I-77028625J26010516D01*
G01*
X138000000Y-59000000D02*
G75*
G02*
X179020314Y-88280375I16491687J-20269859D01*
G01*
%TO.C,M1*%
X118450000Y-107500000D02*
G75*
G02*
X116550000Y-107500000I-950000J0D01*
G01*
X116550000Y-107500000D02*
G75*
G02*
X118450000Y-107500000I950000J0D01*
G01*
X132950000Y-97500000D02*
G75*
G02*
X129050000Y-97500000I-1950000J0D01*
G01*
X129050000Y-97500000D02*
G75*
G02*
X132950000Y-97500000I1950000J0D01*
G01*
X141300000Y-116500000D02*
G75*
G02*
X138700000Y-116500000I-1300000J0D01*
G01*
X138700000Y-116500000D02*
G75*
G02*
X141300000Y-116500000I1300000J0D01*
G01*
X145450000Y-107500000D02*
G75*
G02*
X143550000Y-107500000I-950000J0D01*
G01*
X143550000Y-107500000D02*
G75*
G02*
X145450000Y-107500000I950000J0D01*
G01*
%TD*%
M02*
