%TF.GenerationSoftware,KiCad,Pcbnew,8.0.8*%
%TF.CreationDate,2025-02-12T14:25:55-08:00*%
%TF.ProjectId,jazmyn_hwsw,6a617a6d-796e-45f6-9877-73772e6b6963,rev?*%
%TF.SameCoordinates,Original*%
%TF.FileFunction,Legend,Bot*%
%TF.FilePolarity,Positive*%
%FSLAX46Y46*%
G04 Gerber Fmt 4.6, Leading zero omitted, Abs format (unit mm)*
G04 Created by KiCad (PCBNEW 8.0.8) date 2025-02-12 14:25:55*
%MOMM*%
%LPD*%
G01*
G04 APERTURE LIST*
%ADD10C,0.100000*%
G04 APERTURE END LIST*
D10*
X112871904Y-66427419D02*
X112871904Y-67236942D01*
X112871904Y-67236942D02*
X112824285Y-67332180D01*
X112824285Y-67332180D02*
X112776666Y-67379800D01*
X112776666Y-67379800D02*
X112681428Y-67427419D01*
X112681428Y-67427419D02*
X112490952Y-67427419D01*
X112490952Y-67427419D02*
X112395714Y-67379800D01*
X112395714Y-67379800D02*
X112348095Y-67332180D01*
X112348095Y-67332180D02*
X112300476Y-67236942D01*
X112300476Y-67236942D02*
X112300476Y-66427419D01*
X111300476Y-67427419D02*
X111871904Y-67427419D01*
X111586190Y-67427419D02*
X111586190Y-66427419D01*
X111586190Y-66427419D02*
X111681428Y-66570276D01*
X111681428Y-66570276D02*
X111776666Y-66665514D01*
X111776666Y-66665514D02*
X111871904Y-66713133D01*
X99579523Y-91407419D02*
X99579523Y-90407419D01*
X99579523Y-90407419D02*
X99246190Y-91121704D01*
X99246190Y-91121704D02*
X98912857Y-90407419D01*
X98912857Y-90407419D02*
X98912857Y-91407419D01*
X97912857Y-91407419D02*
X98484285Y-91407419D01*
X98198571Y-91407419D02*
X98198571Y-90407419D01*
X98198571Y-90407419D02*
X98293809Y-90550276D01*
X98293809Y-90550276D02*
X98389047Y-90645514D01*
X98389047Y-90645514D02*
X98484285Y-90693133D01*
%TO.C,U1*%
X109570000Y-71010000D02*
X109570000Y-74820000D01*
X109570000Y-74820000D02*
X117190000Y-74820000D01*
X117190000Y-74820000D02*
X117190000Y-71010000D01*
%TD*%
M02*
